<svg width="165" height="36" viewBox="0 0 165 36" fill="none" xmlns="http://www.w3.org/2000/svg">
<path d="M54.2205 25.9688C53.263 25.7244 52.4843 25.3982 51.8844 24.9903L53.0531 22.4414C54.2946 23.2084 55.7305 23.6256 57.2013 23.6464C58.5674 23.6464 59.2499 23.3144 59.249 22.6503C59.249 22.3007 59.0545 22.042 58.6653 21.8739C58.0576 21.6412 57.4292 21.463 56.7881 21.3415C55.9839 21.1816 55.1918 20.9686 54.4174 20.7039C53.7869 20.4791 53.2248 20.1037 52.7828 19.6121C52.3281 19.1125 52.1007 18.4386 52.1007 17.5903C52.0912 16.8696 52.3105 16.1636 52.7287 15.5684C53.1483 14.9691 53.7741 14.4946 54.6059 14.1451C55.4378 13.7955 56.4586 13.6212 57.6685 13.6221C58.4907 13.6211 59.3103 13.7116 60.1114 13.8917C60.8558 14.052 61.5706 14.322 62.2312 14.6923L61.1345 17.2533C59.933 16.6243 58.7712 16.3098 57.6491 16.3098C56.9429 16.3098 56.4281 16.4118 56.1046 16.6158C55.9587 16.6945 55.8369 16.8095 55.7516 16.949C55.6664 17.0884 55.6208 17.2474 55.6194 17.4097C55.6194 17.7359 55.8112 17.9807 56.1947 18.1443C56.7937 18.3683 57.4129 18.5375 58.0442 18.6497C58.8522 18.8073 59.6477 19.0203 60.4247 19.2873C61.0516 19.5122 61.6127 19.8823 62.0593 20.3656C62.5214 20.8607 62.7525 21.5347 62.7525 22.3875C62.7597 23.0984 62.5397 23.794 62.123 24.3783C61.7043 24.9714 61.0758 25.4458 60.2375 25.8017C59.3992 26.1575 58.3825 26.335 57.1874 26.3341C56.1864 26.3368 55.1892 26.2141 54.2205 25.9688Z" fill="#000127"/>
<path d="M73.3501 23.7232H68.0333L67.0447 26.0982H63.4165L68.9621 13.8728H72.4642L78.0334 26.0982H74.3386L73.3501 23.7232ZM72.3076 21.1622L70.691 17.2533L69.0744 21.1622H72.3076Z" fill="#000127"/>
<path d="M79.5836 13.8661H83.1397V26.0915H79.5836V13.8661Z" fill="#000127"/>
<path d="M86.2104 13.8661H89.768V23.3499H95.767V26.0915H86.2104V13.8661Z" fill="#000127"/>
<path d="M103.204 22.8431H101.263V26.0915H97.7066V13.8661H103.455C104.593 13.8661 105.581 14.0494 106.419 14.416C106.995 14.6796 107.509 15.0573 107.927 15.525C108.344 15.9926 108.657 16.54 108.844 17.1319C109.032 17.7238 109.09 18.3473 109.016 18.9624C108.941 19.5775 108.735 20.1707 108.411 20.704C107.967 21.3774 107.335 21.9134 106.588 22.2487L109.3 26.0915H105.484L103.204 22.8431ZM104.892 17.062C104.523 16.7483 103.972 16.5915 103.24 16.5915H101.264V20.1716H103.24C103.969 20.1716 104.52 20.017 104.892 19.7079C105.265 19.3988 105.45 18.9593 105.447 18.3896C105.448 17.819 105.263 17.3765 104.892 17.062Z" fill="#000127"/>
<path d="M119.963 23.7232H114.65L113.662 26.0982H110.029L115.575 13.8728H119.087L124.654 26.0982H120.95L119.963 23.7232ZM118.92 21.1622L117.304 17.2533L115.687 21.1622H118.92Z" fill="#000127"/>
<path d="M138.158 13.8661V26.0915H135.23L129.684 19.5771V26.0915H126.195V13.8661H129.123L134.668 20.3805V13.8661H138.158Z" fill="#000127"/>
<path d="M146.062 21.6556L144.735 23.0345V26.0915H141.215V13.8661H144.735V18.949L149.603 13.8661H153.519L148.379 19.2752L153.786 26.0861H149.654L146.062 21.6556Z" fill="#000127"/>
<path d="M156.445 25.969C155.486 25.7245 154.708 25.3983 154.109 24.9904L155.277 22.4415C155.883 22.8224 156.543 23.1165 157.235 23.3149C157.944 23.5311 158.682 23.6428 159.426 23.6465C160.791 23.6465 161.474 23.3145 161.475 22.6504C161.475 22.3009 161.28 22.0421 160.89 21.874C160.282 21.6415 159.654 21.4633 159.014 21.3416C158.209 21.1819 157.416 20.9688 156.642 20.7041C156.011 20.4793 155.449 20.1038 155.007 19.6123C154.552 19.1126 154.325 18.4387 154.325 17.5904C154.315 16.8697 154.535 16.1637 154.953 15.5686C155.373 14.9692 155.998 14.4947 156.83 14.1452C157.662 13.7956 158.683 13.6209 159.893 13.6209C160.715 13.6199 161.535 13.7104 162.336 13.8904C163.08 14.0487 163.794 14.3164 164.455 14.6843L163.36 17.2454C162.159 16.6163 160.997 16.3018 159.875 16.3018C159.169 16.3018 158.654 16.4038 158.33 16.6078C158.184 16.6865 158.063 16.8015 157.977 16.941C157.892 17.0805 157.846 17.2395 157.845 17.4017C157.845 17.7279 158.037 17.9728 158.42 18.1363C159.019 18.3604 159.639 18.5296 160.27 18.6418C161.078 18.7993 161.873 19.0124 162.65 19.2793C163.277 19.5043 163.838 19.8744 164.285 20.3577C164.747 20.8528 164.978 21.5267 164.978 22.3795C164.985 23.0902 164.766 23.7857 164.35 24.3703C163.93 24.9634 163.301 25.4379 162.463 25.7937C161.625 26.1496 160.608 26.327 159.413 26.3261C158.412 26.3316 157.414 26.2116 156.445 25.969Z" fill="#000127"/>
<path d="M29.3137 28.9221H26.6795L28.1269 32.8C24.141 32.0641 18.2418 30.8658 14.633 29.6338C14.5678 29.4236 14.4943 29.1863 14.4153 28.9221H11.8296C12.2858 30.5113 12.6296 31.4832 12.6296 31.4832C18.2404 33.7287 31.9257 35.9231 31.9257 35.9231L29.3137 28.9221ZM18.5274 0.0272378C18.3814 0.00726309 18.234 -0.00174954 18.0865 0.000279776C16.7292 0.000279776 12.5797 0.666142 10.3919 8.4516C10.0298 9.78248 9.79775 11.1436 9.69873 12.5169H12.1943C12.2856 11.3582 12.4851 10.21 12.7904 9.08646C13.7803 5.55767 15.1321 3.93614 16.0929 3.1975C16.3383 3.00542 16.6053 2.84084 16.8887 2.70686L20.5488 12.5169H23.1899L18.5274 0.0272378Z" fill="#386FFF"/>
<path d="M32.7379 13.2352C32.1667 13.2358 31.6077 13.3957 31.1272 13.696C30.6468 13.9964 30.2651 14.4245 30.0275 14.9295H19.3813L17.7176 18.0769L16.3256 20.7188L14.5427 24.0953H6.10639C5.82317 23.4932 5.33662 23.0034 4.72754 22.7073C4.11846 22.4111 3.42352 22.3265 2.75814 22.4674C2.09275 22.6083 1.49696 22.9663 1.06974 23.4818C0.642507 23.9974 0.409546 24.6396 0.409546 25.3016C0.409546 25.9637 0.642507 26.6058 1.06974 27.1214C1.49696 27.637 2.09275 27.9949 2.75814 28.1359C3.42352 28.2768 4.11846 28.1921 4.72754 27.896C5.33662 27.5999 5.82317 27.1101 6.10639 26.508H16.058L17.7217 23.3593L19.1081 20.7188L20.8911 17.3409H30.022C30.2448 17.8147 30.5948 18.2213 31.0351 18.5182C31.4754 18.8151 31.9898 18.9911 32.5243 19.028C33.0588 19.0648 33.5936 18.961 34.0726 18.7275C34.5515 18.494 34.957 18.1394 35.2464 17.701C35.5357 17.2625 35.6983 16.7564 35.717 16.2358C35.7357 15.7152 35.6098 15.1993 35.3526 14.7423C35.0954 14.2853 34.7164 13.904 34.2553 13.6386C33.7943 13.3732 33.2682 13.2334 32.7324 13.2339L32.7379 13.2352ZM3.18245 26.419C2.91392 26.37 2.67145 26.2313 2.49699 26.0269C2.32252 25.8225 2.22703 25.5652 2.22703 25.2996C2.22703 25.034 2.32252 24.7767 2.49699 24.5723C2.67145 24.3679 2.91392 24.2292 3.18245 24.1802C3.25416 24.1666 3.32706 24.1598 3.40011 24.16C3.42091 24.16 3.44032 24.16 3.45973 24.16V24.1761L3.53321 24.1653C3.60612 24.1721 3.67813 24.1861 3.7481 24.2071C3.98669 24.2796 4.19522 24.4243 4.34328 24.6201C4.49135 24.8159 4.5712 25.0525 4.5712 25.2956C4.5712 25.5386 4.49135 25.7752 4.34328 25.971C4.19522 26.1668 3.98669 26.3115 3.7481 26.384C3.71899 26.3934 3.68849 26.3975 3.65937 26.4042L3.45973 26.419V26.4352C3.44032 26.4352 3.42091 26.4352 3.40011 26.4352C3.32719 26.4367 3.25429 26.4313 3.18245 26.419ZM32.7449 17.2735C32.5819 17.2736 32.4208 17.2401 32.2721 17.1751C32.0639 17.0864 31.8867 16.9406 31.7624 16.7556C31.638 16.5705 31.5717 16.3543 31.5717 16.1332C31.5717 15.9122 31.638 15.6959 31.7624 15.5109C31.8867 15.3258 32.0639 15.18 32.2721 15.0913C32.4208 15.0264 32.5819 14.9928 32.7449 14.9929C33.0559 14.9929 33.3543 15.113 33.5742 15.3269C33.7942 15.5407 33.9178 15.8308 33.9178 16.1332C33.9178 16.4357 33.7942 16.7257 33.5742 16.9395C33.3543 17.1534 33.0559 17.2735 32.7449 17.2735Z" fill="#02B3FF"/>
<path d="M32.738 22.4011C32.1666 22.4014 31.6073 22.5614 31.1268 22.862C30.6462 23.1626 30.2647 23.5912 30.0276 24.0967H20.8967L19.1138 20.7202L17.7274 18.0784L16.0637 14.931H6.10649C5.82325 14.3285 5.33652 13.8384 4.72717 13.542C4.11781 13.2456 3.42249 13.1609 2.75673 13.3018C2.09097 13.4427 1.49482 13.8008 1.06733 14.3166C0.639844 14.8325 0.406738 15.475 0.406738 16.1374C0.406738 16.7998 0.639844 17.4423 1.06733 17.9581C1.49482 18.474 2.09097 18.8321 2.75673 18.973C3.42249 19.1139 4.11781 19.0291 4.72717 18.7328C5.33652 18.4364 5.82325 17.9462 6.10649 17.3438H14.5428L16.3257 20.7202L17.7204 23.3608L19.3841 26.5095H30.0304C30.2534 26.983 30.6035 27.3894 31.0439 27.6861C31.4843 27.9827 31.9987 28.1586 32.5331 28.1952C33.0675 28.2319 33.6022 28.128 34.081 27.8944C34.5598 27.6608 34.9652 27.3062 35.2544 26.8678C35.5436 26.4294 35.7061 25.9233 35.7248 25.4028C35.7434 24.8823 35.6176 24.3665 35.3605 23.9095C35.1033 23.4526 34.7244 23.0714 34.2635 22.806C33.8025 22.5405 33.2765 22.4007 32.7408 22.4011H32.738ZM3.18255 17.2534C2.91447 17.2037 2.67262 17.0646 2.49867 16.8602C2.32471 16.6557 2.22954 16.3987 2.22954 16.1333C2.22954 15.868 2.32471 15.611 2.49867 15.4065C2.67262 15.2021 2.91447 15.063 3.18255 15.0132C3.25426 14.9996 3.32716 14.9929 3.40022 14.993C3.42101 14.993 3.44042 14.993 3.45983 14.993V15.0092L3.53331 14.9984C3.60575 15.0053 3.67728 15.0193 3.74682 15.0402C3.98593 15.1123 4.19503 15.2569 4.34353 15.4529C4.49204 15.6489 4.57215 15.8859 4.57215 16.1293C4.57215 16.3727 4.49204 16.6097 4.34353 16.8057C4.19503 17.0016 3.98593 17.1463 3.74682 17.2184C3.67728 17.2393 3.60575 17.2533 3.53331 17.2602L3.45983 17.2534V17.2696C3.44042 17.2696 3.42101 17.2696 3.40022 17.2696C3.32729 17.2711 3.2544 17.2657 3.18255 17.2534ZM32.745 26.4394C32.582 26.4394 32.4209 26.4059 32.2722 26.341C32.0639 26.2525 31.8866 26.1069 31.7621 25.9219C31.6377 25.737 31.5714 25.5207 31.5714 25.2997C31.5714 25.0787 31.6377 24.8625 31.7621 24.6775C31.8866 24.4926 32.0639 24.347 32.2722 24.2585C32.4209 24.1935 32.582 24.16 32.745 24.1601C32.9023 24.1548 33.0591 24.1804 33.2061 24.2353C33.353 24.2902 33.4871 24.3733 33.6003 24.4797C33.7135 24.586 33.8035 24.7134 33.865 24.8543C33.9265 24.9952 33.9582 25.1467 33.9582 25.2997C33.9582 25.4528 33.9265 25.6043 33.865 25.7451C33.8035 25.886 33.7135 26.0134 33.6003 26.1198C33.4871 26.2261 33.353 26.3092 33.2061 26.3641C33.0591 26.419 32.9023 26.4446 32.745 26.4394Z" fill="#386FFF"/>
</svg>
